<svg width="196" height="32" viewBox="0 0 196 32" fill="none" xmlns="http://www.w3.org/2000/svg">
<rect width="31.9817" height="32" rx="8" fill="#1F5DE2"/>
<path d="M9.77148 23.1111V8.88892H16.3827C17.7049 8.88892 18.8412 9.09886 19.7916 9.51876C20.7557 9.93865 21.4995 10.5482 22.0229 11.3473C22.5463 12.1329 22.808 13.0675 22.808 14.1511C22.808 15.2212 22.5463 16.149 22.0229 16.9346C21.4995 17.7067 20.7557 18.3027 19.7916 18.7226C18.8412 19.1289 17.7049 19.3321 16.3827 19.3321H12.0441L13.8622 17.6457V23.1111H9.77148ZM18.7173 23.1111L15.1224 17.9302H19.4817L23.0972 23.1111H18.7173ZM13.8622 18.0724L12.0441 16.2235H16.1348C16.9887 16.2235 17.6223 16.0407 18.0355 15.6749C18.4625 15.3092 18.676 14.8013 18.676 14.1511C18.676 13.4874 18.4625 12.9727 18.0355 12.607C17.6223 12.2413 16.9887 12.0584 16.1348 12.0584H12.0441L13.8622 10.2096V18.0724Z" fill="white"/>
<path d="M42.3281 23.6539V8.5H47.7266C48.8999 8.5 49.8736 8.70225 50.6476 9.10675C51.4266 9.51124 52.0083 10.0711 52.3929 10.7864C52.7774 11.4967 52.9697 12.3181 52.9697 13.2504C52.9697 14.1778 52.775 14.9942 52.3855 15.6996C52.0009 16.4 51.4192 16.9451 50.6402 17.3348C49.8662 17.7245 48.8925 17.9194 47.7192 17.9194H43.6297V15.9511H47.5121C48.2516 15.9511 48.8531 15.8451 49.3165 15.633C49.7849 15.4209 50.1275 15.1125 50.3444 14.7081C50.5614 14.3036 50.6698 13.8177 50.6698 13.2504C50.6698 12.6782 50.5589 12.1824 50.337 11.7631C50.1201 11.3438 49.7775 11.0232 49.3091 10.8012C48.8457 10.5743 48.2368 10.4608 47.4825 10.4608H44.6132V23.6539H42.3281ZM49.8046 16.8169L53.5465 23.6539H50.9434L47.2755 16.8169H49.8046Z" fill="black"/>
<path d="M60.326 23.8832C59.2069 23.8832 58.243 23.644 57.4345 23.1655C56.6309 22.6821 56.0097 22.0038 55.5709 21.1307C55.1371 20.2526 54.9202 19.2241 54.9202 18.0452C54.9202 16.881 55.1371 15.8549 55.5709 14.967C56.0097 14.0791 56.621 13.386 57.4049 12.8878C58.1937 12.3896 59.1157 12.1405 60.1707 12.1405C60.8116 12.1405 61.4328 12.2465 62.0343 12.4586C62.6357 12.6708 63.1756 13.0037 63.6538 13.4576C64.132 13.9114 64.5092 14.5009 64.7853 15.226C65.0613 15.9462 65.1994 16.8218 65.1994 17.8528V18.6371H56.1699V16.9796H63.0326C63.0326 16.3976 62.9143 15.8821 62.6777 15.4332C62.441 14.9794 62.1082 14.6217 61.6793 14.3603C61.2553 14.0988 60.7574 13.9681 60.1855 13.9681C59.5643 13.9681 59.022 14.121 58.5586 14.4269C58.1001 14.7278 57.7451 15.1224 57.4937 15.6108C57.2472 16.0942 57.1239 16.6195 57.1239 17.1868V18.4817C57.1239 19.2414 57.257 19.8876 57.5233 20.4203C57.7944 20.9531 58.1716 21.3601 58.6547 21.6412C59.1379 21.9175 59.7023 22.0556 60.3482 22.0556C60.7672 22.0556 61.1493 21.9964 61.4944 21.878C61.8395 21.7547 62.1378 21.5722 62.3892 21.3305C62.6407 21.0888 62.8329 20.7903 62.9661 20.4351L65.0589 20.8125C64.8913 21.4291 64.5905 21.9693 64.1567 22.433C63.7278 22.8917 63.1879 23.2494 62.5371 23.5059C61.8913 23.7575 61.1543 23.8832 60.326 23.8832Z" fill="black"/>
<path d="M76.1645 15.0632L74.1604 15.4184C74.0766 15.1619 73.9435 14.9177 73.7611 14.6859C73.5836 14.454 73.342 14.2641 73.0364 14.1161C72.7307 13.9681 72.3486 13.8941 71.8901 13.8941C71.264 13.8941 70.7414 14.0347 70.3224 14.3159C69.9033 14.5921 69.6938 14.9498 69.6938 15.3888C69.6938 15.7686 69.8343 16.0745 70.1153 16.3063C70.3963 16.5382 70.8499 16.7281 71.476 16.8761L73.2804 17.2904C74.3256 17.5321 75.1045 17.9046 75.6173 18.4077C76.13 18.9109 76.3864 19.5645 76.3864 20.3685C76.3864 21.0493 76.1892 21.656 75.7947 22.1888C75.4053 22.7166 74.8605 23.131 74.1604 23.4319C73.4653 23.7328 72.6592 23.8832 71.7422 23.8832C70.4703 23.8832 69.4325 23.6119 68.6289 23.0693C67.8253 22.5218 67.3323 21.7448 67.1499 20.7385L69.287 20.4129C69.4202 20.9704 69.6938 21.3921 70.1079 21.6782C70.522 21.9594 71.0619 22.1 71.7274 22.1C72.4522 22.1 73.0314 21.9495 73.4653 21.6486C73.8991 21.3428 74.1161 20.9704 74.1161 20.5313C74.1161 20.1762 73.9829 19.8777 73.7167 19.636C73.4554 19.3943 73.0536 19.2118 72.5113 19.0885L70.5886 18.6667C69.5286 18.425 68.7447 18.0402 68.2369 17.5124C67.7341 16.9846 67.4826 16.3162 67.4826 15.5072C67.4826 14.8363 67.67 14.2493 68.0447 13.7461C68.4193 13.243 68.937 12.8508 69.5976 12.5696C70.2583 12.2835 71.015 12.1405 71.8679 12.1405C73.0955 12.1405 74.0618 12.4069 74.7668 12.9396C75.4718 13.4674 75.9377 14.1753 76.1645 15.0632Z" fill="black"/>
<path d="M86.013 18.9405V12.2885H88.2315V23.6539H86.0573V21.6856H85.939C85.6777 22.2924 85.2587 22.798 84.6818 23.2025C84.1099 23.6021 83.3975 23.8018 82.5446 23.8018C81.815 23.8018 81.1692 23.6415 80.6071 23.3209C80.05 22.9953 79.6112 22.5144 79.2908 21.878C78.9753 21.2417 78.8175 20.4549 78.8175 19.5176V12.2885H81.0286V19.2512C81.0286 20.0257 81.2431 20.6423 81.672 21.1011C82.1009 21.5598 82.658 21.7892 83.3433 21.7892C83.7574 21.7892 84.1691 21.6856 84.5783 21.4785C84.9924 21.2713 85.3351 20.958 85.6062 20.5387C85.8823 20.1194 86.0179 19.5867 86.013 18.9405Z" fill="black"/>
<path d="M91.2025 23.6539V12.2885H93.3249V14.1383H93.4654C93.702 13.5118 94.089 13.0235 94.6264 12.6732C95.1638 12.3181 95.8072 12.1405 96.5566 12.1405C97.3158 12.1405 97.9518 12.3181 98.4645 12.6732C98.9822 13.0284 99.3642 13.5168 99.6107 14.1383H99.7291C100 13.5316 100.432 13.0481 101.023 12.688C101.615 12.323 102.32 12.1405 103.138 12.1405C104.169 12.1405 105.009 12.4636 105.66 13.1098C106.316 13.756 106.643 14.7302 106.643 16.0325V23.6539H104.432V16.2397C104.432 15.4702 104.223 14.9128 103.804 14.5675C103.385 14.2222 102.884 14.0495 102.303 14.0495C101.583 14.0495 101.023 14.2715 100.624 14.7154C100.225 15.1545 100.025 15.7193 100.025 16.4099V23.6539H97.8211V16.0991C97.8211 15.4825 97.6288 14.9868 97.2443 14.6119C96.8598 14.237 96.3593 14.0495 95.7431 14.0495C95.324 14.0495 94.937 14.1605 94.5821 14.3825C94.232 14.5995 93.9485 14.9029 93.7316 15.2926C93.5196 15.6823 93.4136 16.1337 93.4136 16.6467V23.6539H91.2025Z" fill="black"/>
<path d="M114.503 23.8832C113.384 23.8832 112.42 23.644 111.611 23.1655C110.808 22.6821 110.186 22.0038 109.748 21.1307C109.314 20.2526 109.097 19.2241 109.097 18.0452C109.097 16.881 109.314 15.8549 109.748 14.967C110.186 14.0791 110.798 13.386 111.582 12.8878C112.37 12.3896 113.292 12.1405 114.347 12.1405C114.988 12.1405 115.609 12.2465 116.211 12.4586C116.812 12.6708 117.352 13.0037 117.83 13.4576C118.309 13.9114 118.686 14.5009 118.962 15.226C119.238 15.9462 119.376 16.8218 119.376 17.8528V18.6371H110.347V16.9796H117.209C117.209 16.3976 117.091 15.8821 116.854 15.4332C116.618 14.9794 116.285 14.6217 115.856 14.3603C115.432 14.0988 114.934 13.9681 114.362 13.9681C113.741 13.9681 113.199 14.121 112.735 14.4269C112.277 14.7278 111.922 15.1224 111.67 15.6108C111.424 16.0942 111.301 16.6195 111.301 17.1868V18.4817C111.301 19.2414 111.434 19.8876 111.7 20.4203C111.971 20.9531 112.348 21.3601 112.831 21.6412C113.315 21.9175 113.879 22.0556 114.525 22.0556C114.944 22.0556 115.326 21.9964 115.671 21.878C116.016 21.7547 116.314 21.5722 116.566 21.3305C116.817 21.0888 117.01 20.7903 117.143 20.4351L119.236 20.8125C119.068 21.4291 118.767 21.9693 118.333 22.433C117.904 22.8917 117.365 23.2494 116.714 23.5059C116.068 23.7575 115.331 23.8832 114.503 23.8832Z" fill="black"/>
<path d="M122.007 23.6539V8.5H124.292V21.6856H131.155V23.6539H122.007Z" fill="black"/>
<path d="M138.479 23.8832C137.36 23.8832 136.397 23.644 135.588 23.1655C134.784 22.6821 134.163 22.0038 133.724 21.1307C133.291 20.2526 133.074 19.2241 133.074 18.0452C133.074 16.881 133.291 15.8549 133.724 14.967C134.163 14.0791 134.775 13.386 135.558 12.8878C136.347 12.3896 137.269 12.1405 138.324 12.1405C138.965 12.1405 139.586 12.2465 140.188 12.4586C140.789 12.6708 141.329 13.0037 141.807 13.4576C142.286 13.9114 142.663 14.5009 142.939 15.226C143.215 15.9462 143.353 16.8218 143.353 17.8528V18.6371H134.323V16.9796H141.186C141.186 16.3976 141.068 15.8821 140.831 15.4332C140.595 14.9794 140.262 14.6217 139.833 14.3603C139.409 14.0988 138.911 13.9681 138.339 13.9681C137.718 13.9681 137.175 14.121 136.712 14.4269C136.254 14.7278 135.899 15.1224 135.647 15.6108C135.401 16.0942 135.277 16.6195 135.277 17.1868V18.4817C135.277 19.2414 135.411 19.8876 135.677 20.4203C135.948 20.9531 136.325 21.3601 136.808 21.6412C137.291 21.9175 137.856 22.0556 138.502 22.0556C138.921 22.0556 139.303 21.9964 139.648 21.878C139.993 21.7547 140.291 21.5722 140.543 21.3305C140.794 21.0888 140.986 20.7903 141.12 20.4351L143.212 20.8125C143.045 21.4291 142.744 21.9693 142.31 22.433C141.881 22.8917 141.341 23.2494 140.691 23.5059C140.045 23.7575 139.308 23.8832 138.479 23.8832Z" fill="black"/>
<path d="M149.112 23.9054C148.392 23.9054 147.741 23.7722 147.16 23.5059C146.578 23.2346 146.117 22.8424 145.777 22.3294C145.441 21.8164 145.274 21.1874 145.274 20.4425C145.274 19.8013 145.397 19.2734 145.644 18.8591C145.89 18.4447 146.223 18.1167 146.642 17.875C147.061 17.6333 147.529 17.4507 148.047 17.3274C148.565 17.2041 149.092 17.1104 149.629 17.0462C150.31 16.9673 150.862 16.9032 151.286 16.8539C151.71 16.7996 152.018 16.7133 152.21 16.5949C152.403 16.4765 152.499 16.2841 152.499 16.0177V15.9659C152.499 15.3197 152.316 14.819 151.952 14.4639C151.592 14.1087 151.054 13.9311 150.339 13.9311C149.595 13.9311 149.008 14.0964 148.579 14.4269C148.155 14.7524 147.862 15.115 147.699 15.5146L145.621 15.041C145.868 14.3504 146.228 13.793 146.701 13.3688C147.179 12.9396 147.729 12.6288 148.35 12.4365C148.971 12.2391 149.625 12.1405 150.31 12.1405C150.763 12.1405 151.244 12.1947 151.752 12.3033C152.265 12.4069 152.743 12.5992 153.187 12.8804C153.635 13.1616 154.002 13.5636 154.288 14.0865C154.574 14.6045 154.717 15.2778 154.717 16.1065V23.6539H152.558V22.1H152.469C152.326 22.3861 152.112 22.6673 151.826 22.9435C151.54 23.2198 151.173 23.4491 150.724 23.6317C150.275 23.8142 149.738 23.9054 149.112 23.9054ZM149.593 22.1296C150.204 22.1296 150.726 22.0087 151.16 21.767C151.599 21.5253 151.932 21.2096 152.159 20.8199C152.39 20.4253 152.506 20.0035 152.506 19.5546V18.0896C152.427 18.1685 152.274 18.2425 152.048 18.3115C151.826 18.3757 151.572 18.4324 151.286 18.4817C151 18.5261 150.722 18.568 150.45 18.6075C150.179 18.642 149.952 18.6716 149.77 18.6963C149.341 18.7506 148.949 18.8418 148.594 18.9701C148.244 19.0983 147.963 19.2833 147.751 19.525C147.544 19.7618 147.441 20.0775 147.441 20.4721C147.441 21.0197 147.643 21.4341 148.047 21.7152C148.451 21.9915 148.966 22.1296 149.593 22.1296Z" fill="black"/>
<path d="M161.915 23.8758C160.998 23.8758 160.179 23.6415 159.459 23.1729C158.745 22.6993 158.183 22.026 157.773 21.1529C157.369 20.2748 157.167 19.2217 157.167 17.9934C157.167 16.7651 157.372 15.7144 157.781 14.8412C158.195 13.9681 158.762 13.2997 159.482 12.836C160.201 12.3723 161.017 12.1405 161.929 12.1405C162.634 12.1405 163.201 12.2589 163.63 12.4956C164.064 12.7275 164.399 12.9988 164.636 13.3096C164.878 13.6203 165.065 13.8941 165.198 14.1309H165.331V8.5H167.542V23.6539H165.383V21.8854H165.198C165.065 22.1271 164.873 22.4034 164.621 22.7141C164.375 23.0249 164.035 23.2962 163.601 23.5281C163.167 23.7599 162.605 23.8758 161.915 23.8758ZM162.403 21.989C163.039 21.989 163.576 21.8213 164.015 21.4859C164.459 21.1455 164.794 20.6744 165.021 20.0726C165.252 19.4708 165.368 18.7703 165.368 17.9712C165.368 17.1819 165.255 16.4913 165.028 15.8993C164.801 15.3074 164.468 14.8462 164.03 14.5157C163.591 14.1852 163.049 14.0199 162.403 14.0199C161.737 14.0199 161.183 14.1926 160.739 14.5379C160.295 14.8832 159.96 15.3543 159.733 15.9511C159.511 16.548 159.4 17.2214 159.4 17.9712C159.4 18.7308 159.514 19.414 159.74 20.0208C159.967 20.6275 160.302 21.1085 160.746 21.4637C161.195 21.8139 161.747 21.989 162.403 21.989Z" fill="black"/>
<path d="M175.594 23.8832C174.475 23.8832 173.511 23.644 172.702 23.1655C171.899 22.6821 171.277 22.0038 170.839 21.1307C170.405 20.2526 170.188 19.2241 170.188 18.0452C170.188 16.881 170.405 15.8549 170.839 14.967C171.277 14.0791 171.889 13.386 172.673 12.8878C173.462 12.3896 174.383 12.1405 175.438 12.1405C176.079 12.1405 176.701 12.2465 177.302 12.4586C177.904 12.6708 178.443 13.0037 178.922 13.4576C179.4 13.9114 179.777 14.5009 180.053 15.226C180.329 15.9462 180.467 16.8218 180.467 17.8528V18.6371H171.438V16.9796H178.3C178.3 16.3976 178.182 15.8821 177.945 15.4332C177.709 14.9794 177.376 14.6217 176.947 14.3603C176.523 14.0988 176.025 13.9681 175.453 13.9681C174.832 13.9681 174.29 14.121 173.826 14.4269C173.368 14.7278 173.013 15.1224 172.761 15.6108C172.515 16.0942 172.392 16.6195 172.392 17.1868V18.4817C172.392 19.2414 172.525 19.8876 172.791 20.4203C173.062 20.9531 173.439 21.3601 173.922 21.6412C174.406 21.9175 174.97 22.0556 175.616 22.0556C176.035 22.0556 176.417 21.9964 176.762 21.878C177.107 21.7547 177.406 21.5722 177.657 21.3305C177.908 21.0888 178.101 20.7903 178.234 20.4351L180.327 20.8125C180.159 21.4291 179.858 21.9693 179.424 22.433C178.996 22.8917 178.456 23.2494 177.805 23.5059C177.159 23.7575 176.422 23.8832 175.594 23.8832Z" fill="black"/>
<path d="M182.92 23.6539V12.2885H185.058V14.0939H185.176C185.383 13.4822 185.748 13.0013 186.27 12.651C186.798 12.2959 187.395 12.1183 188.06 12.1183C188.198 12.1183 188.361 12.1232 188.548 12.1331C188.74 12.1429 188.891 12.1553 188.999 12.1701V14.2863C188.911 14.2616 188.753 14.2345 188.526 14.2049C188.299 14.1704 188.072 14.1531 187.846 14.1531C187.323 14.1531 186.857 14.2641 186.448 14.4861C186.044 14.7031 185.723 15.0065 185.487 15.3962C185.25 15.781 185.132 16.22 185.132 16.7133V23.6539H182.92Z" fill="black"/>
</svg>
