<svg width="130" height="32" viewBox="0 0 130 32" fill="none" xmlns="http://www.w3.org/2000/svg">
<path d="M34.0763 11.3398H47.193V13.7947H42.0284V27.6331H39.1976V13.7947H34.0547L34.0763 11.3398ZM46.6312 15.8368H49.0514V18.1178H49.0946C49.181 17.792 49.3323 17.4878 49.5484 17.1837C49.7645 16.8796 50.0238 16.5971 50.3479 16.3582C50.6504 16.0975 50.9962 15.902 51.3851 15.7499C51.7525 15.5978 52.1415 15.5109 52.5304 15.5109C52.833 15.5109 53.049 15.5326 53.1571 15.5326C53.2651 15.5544 53.3948 15.5761 53.5028 15.5761V18.0744C53.33 18.0309 53.1355 18.0092 52.941 17.9875C52.7465 17.9658 52.5736 17.9441 52.3792 17.9441C51.947 17.9441 51.5364 18.0309 51.1475 18.2047C50.7585 18.3785 50.4344 18.6392 50.1318 18.9651C49.8509 19.3127 49.6132 19.7254 49.4403 20.2251C49.2675 20.7248 49.181 21.3113 49.181 21.9631V27.5679H46.5879L46.6312 15.8368ZM65.3878 27.6331H62.8379V25.9821H62.7947C62.4706 26.5904 61.9952 27.0466 61.3685 27.4159C60.7419 27.7852 60.0936 27.959 59.4453 27.959C57.9111 27.959 56.7874 27.5897 56.0959 26.8076C55.4044 26.0472 55.0587 24.8741 55.0587 23.3317V15.8368H57.6518V23.071C57.6518 24.1138 57.8463 24.8524 58.2568 25.2652C58.6458 25.6996 59.2076 25.9169 59.9207 25.9169C60.461 25.9169 60.9147 25.83 61.2821 25.6562C61.6495 25.4824 61.952 25.2652 62.1681 24.9827C62.4058 24.7003 62.557 24.3527 62.6651 23.9617C62.7731 23.5707 62.8163 23.1362 62.8163 22.68V15.8368H65.4094V27.6331H65.3878ZM69.7961 23.8531C69.8825 24.6134 70.1634 25.1348 70.6604 25.4607C71.1574 25.7648 71.7625 25.9169 72.454 25.9169C72.6917 25.9169 72.9726 25.8952 73.2751 25.8517C73.5777 25.8083 73.8802 25.7431 74.1395 25.6345C74.4204 25.5259 74.6365 25.3738 74.8094 25.1565C74.9822 24.9393 75.0687 24.6786 75.0471 24.3527C75.0255 24.0269 74.9174 23.7445 74.6797 23.5272C74.442 23.31 74.1611 23.1579 73.8153 23.0058C73.4696 22.8755 73.059 22.7669 72.6052 22.68C72.1515 22.5931 71.6977 22.4844 71.2223 22.3758C70.7469 22.2672 70.2715 22.1369 69.8177 21.9848C69.3639 21.8327 68.9749 21.6372 68.6076 21.3548C68.2618 21.0941 67.9593 20.7682 67.7648 20.3555C67.5487 19.9427 67.4407 19.4648 67.4407 18.8565C67.4407 18.2047 67.5919 17.6834 67.9161 17.2489C68.2186 16.8144 68.6292 16.4668 69.1046 16.2061C69.58 15.9454 70.1202 15.7499 70.7036 15.6413C71.2871 15.5326 71.8489 15.4892 72.3675 15.4892C72.9726 15.4892 73.556 15.5544 74.0963 15.6847C74.6365 15.8151 75.1551 16.0106 75.5873 16.3147C76.0411 16.5971 76.4084 16.9882 76.6894 17.4444C76.9919 17.9006 77.1648 18.4654 77.2512 19.1172H74.5501C74.4204 18.4872 74.1395 18.0744 73.7073 17.8572C73.2535 17.6399 72.7565 17.5313 72.1731 17.5313C72.0002 17.5313 71.7625 17.553 71.5248 17.5747C71.2655 17.6182 71.0494 17.6616 70.8117 17.7485C70.5956 17.8354 70.4011 17.9658 70.2499 18.1178C70.0986 18.2699 70.0122 18.4872 70.0122 18.7478C70.0122 19.0737 70.1202 19.3127 70.3363 19.5082C70.5524 19.7037 70.8333 19.8558 71.2007 20.0079C71.5464 20.1382 71.957 20.2468 72.4108 20.3337C72.8646 20.4206 73.34 20.5292 73.8153 20.6379C74.2907 20.7465 74.7445 20.8768 75.1983 21.0289C75.6521 21.181 76.0627 21.3765 76.4084 21.6589C76.7542 21.9196 77.0567 22.2455 77.2728 22.6365C77.4889 23.0276 77.5969 23.5272 77.5969 24.092C77.5969 24.7872 77.4457 25.3738 77.1215 25.8734C76.7974 26.3514 76.3868 26.7641 75.8898 27.0683C75.3928 27.3724 74.8094 27.5897 74.2043 27.7417C73.5776 27.8721 72.9726 27.959 72.3675 27.959C71.6328 27.959 70.9413 27.8721 70.3147 27.6983C69.688 27.5245 69.1262 27.2638 68.6724 26.9379C68.2186 26.5903 67.8512 26.1776 67.5919 25.6562C67.3326 25.1565 67.1814 24.5483 67.1598 23.8314H69.7745V23.8531H69.7961ZM78.3316 15.8368H80.2981V12.274H82.8912V15.8151H85.2249V17.7485H82.8912V24.0486C82.8912 24.331 82.9128 24.5483 82.9344 24.7655C82.956 24.961 83.0208 25.1348 83.0856 25.2652C83.1721 25.3955 83.3017 25.5041 83.453 25.5693C83.6259 25.6345 83.8419 25.6779 84.1445 25.6779C84.3173 25.6779 84.5118 25.6779 84.6847 25.6562C84.8576 25.6345 85.0521 25.6128 85.2249 25.5693V27.5897C84.944 27.6331 84.6631 27.6548 84.3822 27.6766C84.1013 27.72 83.842 27.72 83.5394 27.72C82.8479 27.72 82.3077 27.6548 81.8971 27.5245C81.4866 27.3942 81.1624 27.1986 80.9247 26.9597C80.687 26.699 80.5358 26.3948 80.4493 26.0255C80.3629 25.6562 80.3197 25.2 80.2981 24.7221V17.7703H78.3316V15.7933V15.8368ZM87.0401 15.8368H89.4819V17.4444H89.5251C89.8925 16.7492 90.3895 16.2713 91.0378 15.9671C91.686 15.663 92.3775 15.5109 93.1555 15.5109C94.0846 15.5109 94.8842 15.663 95.5757 16.0106C96.2672 16.3364 96.829 16.7709 97.2828 17.3575C97.7366 17.9223 98.0823 18.5958 98.2984 19.3561C98.5145 20.1165 98.6442 20.942 98.6442 21.7893C98.6442 22.5931 98.5361 23.3534 98.3416 24.092C98.1255 24.8307 97.823 25.5041 97.4124 26.069C97.0019 26.6338 96.4832 27.09 95.835 27.4376C95.1867 27.7852 94.452 27.959 93.5876 27.959C93.2203 27.959 92.8313 27.9155 92.464 27.8504C92.0966 27.7852 91.7293 27.6766 91.3835 27.5245C91.0378 27.3724 90.7136 27.1769 90.4327 26.9379C90.1302 26.699 89.8925 26.4166 89.698 26.1124H89.6548V31.9997H87.0617V15.8368H87.0401ZM96.0943 21.7458C96.0943 21.2244 96.0295 20.703 95.8782 20.2034C95.7485 19.7037 95.5324 19.2692 95.2515 18.8782C94.9706 18.4872 94.6249 18.183 94.2359 17.9441C93.8253 17.7051 93.3499 17.5965 92.8313 17.5965C91.7509 17.5965 90.9297 17.9658 90.3679 18.7261C89.8277 19.4865 89.5467 20.5075 89.5467 21.7675C89.5467 22.3758 89.6116 22.9189 89.7628 23.4186C89.9141 23.9182 90.1086 24.3527 90.4111 24.7221C90.692 25.0914 91.0378 25.3738 91.4483 25.591C91.8589 25.8083 92.3127 25.9169 92.8529 25.9169C93.458 25.9169 93.9334 25.7865 94.344 25.5476C94.7545 25.3086 95.0787 24.9827 95.3596 24.6134C95.6189 24.2224 95.8134 23.7879 95.9214 23.2882C96.0295 22.7669 96.0943 22.2672 96.0943 21.7458ZM100.654 11.3398H103.247V13.7947H100.654V11.3398ZM100.654 15.8368H103.247V27.6331H100.654V15.8368ZM105.559 11.3398H108.152V27.6331H105.559V11.3398ZM116.061 27.959C115.132 27.959 114.289 27.8069 113.554 27.481C112.82 27.1552 112.215 26.7424 111.696 26.1993C111.199 25.6562 110.81 24.9827 110.551 24.2224C110.291 23.462 110.14 22.6148 110.14 21.7241C110.14 20.8334 110.27 20.0079 110.551 19.2475C110.81 18.4872 111.199 17.8354 111.696 17.2706C112.193 16.7275 112.82 16.293 113.554 15.9889C114.289 15.6847 115.132 15.5109 116.061 15.5109C116.99 15.5109 117.833 15.663 118.568 15.9889C119.302 16.293 119.907 16.7275 120.426 17.2706C120.923 17.8137 121.312 18.4872 121.571 19.2475C121.831 20.0079 121.982 20.8334 121.982 21.7241C121.982 22.6365 121.852 23.462 121.571 24.2224C121.29 24.9827 120.923 25.6345 120.426 26.1993C119.929 26.7424 119.302 27.1769 118.568 27.481C117.833 27.7852 117.012 27.959 116.061 27.959ZM116.061 25.8952C116.623 25.8952 117.142 25.7648 117.552 25.5259C117.984 25.2869 118.308 24.961 118.589 24.57C118.87 24.1789 119.065 23.7227 119.194 23.2448C119.324 22.7451 119.389 22.2455 119.389 21.7241C119.389 21.2244 119.324 20.7248 119.194 20.2251C119.065 19.7254 118.87 19.291 118.589 18.8999C118.308 18.5089 117.963 18.2047 117.552 17.9658C117.12 17.7268 116.623 17.5965 116.061 17.5965C115.499 17.5965 114.981 17.7268 114.57 17.9658C114.138 18.2047 113.814 18.5306 113.533 18.8999C113.252 19.291 113.057 19.7254 112.928 20.2251C112.798 20.7248 112.733 21.2244 112.733 21.7241C112.733 22.2455 112.798 22.7451 112.928 23.2448C113.057 23.7445 113.252 24.1789 113.533 24.57C113.814 24.961 114.159 25.2869 114.57 25.5259C115.002 25.7865 115.499 25.8952 116.061 25.8952ZM122.76 15.8368H124.726V12.274H127.319V15.8151H129.653V17.7485H127.319V24.0486C127.319 24.331 127.341 24.5483 127.363 24.7655C127.384 24.961 127.449 25.1348 127.514 25.2652C127.6 25.3955 127.73 25.5041 127.881 25.5693C128.054 25.6345 128.27 25.6779 128.573 25.6779C128.746 25.6779 128.94 25.6779 129.113 25.6562C129.286 25.6345 129.48 25.6128 129.653 25.5693V27.5897C129.372 27.6331 129.091 27.6548 128.81 27.6766C128.529 27.72 128.27 27.72 127.968 27.72C127.276 27.72 126.736 27.6548 126.325 27.5245C125.915 27.3942 125.591 27.1986 125.353 26.9597C125.115 26.699 124.964 26.3948 124.878 26.0255C124.791 25.6562 124.748 25.2 124.726 24.7221V17.7703H122.76V15.7933V15.8368Z" fill="black"/>
<path d="M31.0522 11.3401H19.1888L15.5369 0L11.8634 11.3401L0 11.3184L9.59442 18.3354L5.92088 29.6755L15.5153 22.6585L25.1097 29.6755L21.4578 18.3354L31.0522 11.3401Z" fill="#00B67A"/>
<path d="M22.2811 20.8984L21.4599 18.335L15.5391 22.6581L22.2811 20.8984Z" fill="#005128"/>
</svg>
